<svg width="100" height="23" xmlns="http://www.w3.org/2000/svg">
 <g id="Layer_1">
  <title>Layer 1</title>
  <path d="m0.60606,21.34849c0.30303,0 0.35548,-0.2584 0.60606,-0.60606c0.3962,-0.54969 0.44206,-0.81619 0.60606,-1.21212c0.11596,-0.27996 0.44675,-0.34829 0.60606,-0.60606c0.35623,-0.5764 1.09426,-0.58426 1.81818,-1.21212c0.51189,-0.44396 1.00303,-0.70833 1.81818,-1.21212c0.72909,-0.4506 1.09426,-0.58426 1.81818,-1.21212c0.51189,-0.44396 1.14223,-1.00097 1.51515,-1.21212c1.08725,-0.61559 2.4001,-0.95999 3.63636,-1.51515c1.48866,-0.6685 2.72727,-0.90909 3.93939,-1.51515c1.21212,-0.60606 2.38433,-0.99654 3.63636,-1.51515c0.88532,-0.36671 1.80722,-0.33814 2.72727,-0.60606c1.1996,-0.34932 3.337,-0.58142 5.45454,-0.90909c1.82158,-0.28187 3.24323,-0.46708 4.24243,-0.90909c1.14262,-0.50546 2.72727,-0.30303 3.93939,-0.60606c1.21212,-0.30303 2.42424,-0.60606 3.63636,-0.90909c1.21212,-0.30303 2.43677,-0.55977 3.63636,-0.90909c0.92005,-0.26792 1.51515,-0.60606 2.12121,-0.60606c0.30303,0 1.21212,0 2.42424,0c0.60606,0 1.21212,0 1.51515,0c0.60606,0 1.51515,-0.30303 2.12121,-0.30303c0.30303,0 0.60606,0 1.21212,0c0.30303,0 0.34829,0.14372 0.60606,0.30303c0.5764,0.35623 0.30303,0.90909 0.60606,1.21212c0.30303,0.30303 0.21013,0.74509 0.60606,0.90909c0.27996,0.11597 0.3261,0.18706 0.60606,0.30303c0.39593,0.164 0.51316,0.74509 0.90909,0.90909c0.27996,0.11597 0.30303,0.30303 0.30303,0.60606c0,0.60606 -0.44206,0.81619 -0.60606,1.21212c-0.23193,0.55993 -0.17751,0.48054 -0.60606,0.90909c-0.42855,0.42855 0.11596,0.93216 0,1.21212c-0.164,0.39593 -0.23341,0.61417 -0.30303,0.90909c-0.15568,0.65947 -0.44206,1.11923 -0.60606,1.51515c-0.11596,0.27996 -0.51596,0.46708 -1.51515,0.90909c-1.14262,0.50546 -2.29872,0.17751 -2.72727,0.60606c-0.21428,0.21428 -0.13903,0.0929 -0.30303,-0.30303c-0.23193,-0.55993 0,-1.21212 0,-1.81818c0,-0.60606 0,-1.21212 0,-1.51515c0,-0.30303 0.30303,-0.60606 0.90909,-1.21212c0.60606,-0.60606 1.73302,-1.60916 2.72727,-2.42424c0.84495,-0.69269 1.45626,-1.04497 2.72727,-1.51515c1.17182,-0.43348 2.44801,-0.84541 3.33334,-1.21212c0.62602,-0.25931 1.47523,-0.39048 2.72727,-0.90909c0.88532,-0.36671 2.13295,-0.46044 3.0303,-0.60606c0.94589,-0.1535 1.52689,-0.46044 2.42424,-0.60606c0.94589,-0.1535 1.72529,-0.44206 2.12122,-0.60606c0.27996,-0.11596 1.22347,0.18513 2.72727,0c1.24007,-0.15266 2.0678,-0.45038 2.72727,-0.60606c0.58984,-0.13924 1.51515,0 1.81818,0c0.30303,0 0.9091,0 1.51515,0c0.9091,0 1.21213,0 1.81818,0c0.60606,0 1.51515,0.30303 2.42424,0.30303c0.30303,0 0.69482,0.08876 0.9091,0.30303c0.42854,0.42855 1.11922,0.13903 1.51515,0.30303c0.55992,0.23193 1.46174,0.45038 2.12121,0.60606c0.29492,0.06962 0.85568,0.45038 1.51515,0.60606c0.29492,0.06962 0.42027,0.27806 1.21212,0.60606c0.55993,0.23193 0.9091,0.30303 1.21213,0.30303c0.30302,0 0.69481,0.08875 0.90909,0.30303c0.21427,0.21427 0.51316,0.74509 0.90909,0.90909c0.27997,0.11596 0.60606,0 0.60606,0.30303c0,0.30303 0.30303,0.30303 0.60606,0.90909c0.30303,0.60606 0.60606,0.90909 0.60606,1.21212c0,0.30303 -0.09317,0.66243 0.30303,1.21212c0.25058,0.34766 0.30303,0.60606 0.30303,0.90909c0,0.30303 0,0.90909 0,1.51515c0,0.30303 0,0.60606 0,0.90909c0,0.30303 -0.08875,0.39178 -0.30303,0.60606c-0.21427,0.21427 0,0.90909 0,1.21212c0,0.30303 -0.13903,0.51316 -0.30303,0.90909c-0.23193,0.55993 0,0.90909 0,1.21212c0,0.30303 -0.30303,0.60606 -0.30303,1.21212c0,0.60606 -0.30303,0.90909 -0.30303,1.21212c0,0.30303 -0.30302,0.30303 -0.30302,0.60606c0,0.30303 0,0.60606 0,0.90909c0,0.30303 -0.08875,0.39178 -0.30303,0.60606c-0.21428,0.21428 -0.08875,0.82034 -0.30303,0.60606c-0.21427,-0.21428 0,-0.60606 0,-0.90909c0,-0.30303 -0.44206,-0.51316 -0.60606,-0.90909c-0.11597,-0.27996 -0.18706,-0.3261 -0.30302,-0.60606c-0.164,-0.39593 -0.75342,-0.85568 -0.9091,-1.51515c-0.06963,-0.29492 -0.08875,-0.39179 -0.30302,-0.60606c-0.21427,-0.21428 -0.5173,-0.39178 -0.30303,-0.60606c0.21428,-0.21428 0.69482,0.08875 0.90909,0.30303c0.21428,0.21428 0.18707,0.3261 0.30303,0.60606c0.164,0.39593 0.08876,0.69481 0.30303,0.90909c0.21427,0.21427 0.74509,-0.0929 0.90909,0.30303c0.11597,0.27996 0,0.60606 0,0.90909c0,0.30303 -0.44206,0.21013 -0.60606,0.60606c-0.11597,0.27996 0.08875,0.39178 0.30303,0.60606c0.21427,0.21428 0.60606,0.30303 0.9091,0.30303c0.60606,0 0.62912,-0.18707 0.90909,-0.30303c0.79185,-0.328 0.81619,-0.74509 1.21212,-0.90909c0.27997,-0.11596 0.30303,-0.30303 0.60606,-0.30303l0,-0.30303l0,-0.30303l0,-0.30303" id="svg_1" stroke="#000" fill="none"/>
 </g>
</svg>