<svg width="130" height="50" xmlns="http://www.w3.org/2000/svg">
    <g stroke="black" fill="none">
        <path d="m4.52381,13.49206c0.31746,0.31746 0.522,0.77274 0.79365,1.42857c0.38417,0.92748 0.59048,1.91843 0.95238,3.01587c0.42473,1.28797 0.88206,2.51974 1.26984,4.44444c0.41235,2.04664 0.47619,3.80952 0.79365,5.39683c0.31746,1.5873 0.47619,3.1746 0.79365,4.44444c0.15873,0.63492 0.31746,0.79365 0.31746,0.95238c0,0.15873 0.07718,0.44822 0.15873,0.79365c0.10941,0.46345 0.11994,0.79603 0.15873,1.11111c0.07996,0.64956 0.31746,1.42857 0.47619,2.22222c0.15873,0.79365 0.15873,1.26984 0.31746,2.06349c0.15873,0.79365 0.55517,1.73425 0.63492,2.53968c0.06256,0.63183 0.24554,1.24518 0.47619,2.22222c0.25787,1.09237 0.31746,1.74603 0.47619,2.06349l0,0.15873l0.15873,0"/>
        <path d="m3.25397,35.87302c0,-0.15873 0.29377,-0.50953 0.95238,-0.95238c0.76807,-0.51645 1.76428,-0.72047 3.1746,-1.11111c1.45121,-0.40196 3.03555,-0.87963 4.92063,-1.42857c2.40966,-0.70169 4.7619,-1.42857 6.66667,-2.06349l1.5873,-0.47619l0.79365,-0.15873l0.15873,0" id="svg_2" />
        <path d="m23.88889,14.12698c-0.15873,0.15873 -0.46889,1.11322 -0.79365,2.22222c-0.46574,1.5904 -0.872,3.48065 -1.11111,5.39683c-0.23668,1.89665 -0.21576,3.02553 0,4.12698c0.25162,1.28451 0.54203,2.52501 0.79365,3.80952c0.21576,1.10146 0.1817,2.23055 0.31746,3.33333c0.15993,1.29911 0.31746,2.38095 0.31746,3.49206c0,1.11111 0,2.0635 0,3.17461c0,1.11111 0,2.22222 0,3.1746c0,0.63492 0,1.11111 0.15873,1.5873c0.15873,0.47619 0.31746,0.95238 0.31746,1.11111l0,0.15873l0.15873,0l0.15873,0"/>
        <path d="m34.36508,33.65079c-0.15873,0 -0.95625,0.07821 -1.74603,0c-0.80543,-0.07975 -1.42857,-0.15873 -1.90476,-0.15873c-0.47619,0 -1.04189,0.2171 -1.5873,0.79365c-0.3933,0.41576 -0.63492,0.95238 -0.95238,1.5873c-0.31746,0.63492 -0.71369,1.57266 -0.79365,2.22222c-0.07758,0.63017 -0.12007,1.2813 0,1.90476c0.16165,0.83937 0.57538,1.52852 0.95238,2.06349c0.32968,0.46782 0.9331,0.71325 1.42857,0.79365c0.47004,0.07627 1.59695,0.05703 2.69841,-0.15873c1.28451,-0.25162 2.22932,-0.43831 3.17461,-0.63492c0.64075,-0.13327 1.28229,-0.12537 1.74603,-0.31746c0.65583,-0.27166 1.18815,-0.77002 1.90476,-1.11111c0.59094,-0.28127 0.98554,-0.61363 1.5873,-1.5873c0.67279,-1.0886 1.11111,-1.90476 1.11111,-2.38095c0,-0.63492 0,-1.5873 0,-2.53968c0,-0.31746 -0.13535,-0.50367 -0.31746,-0.63492c-0.28794,-0.20753 -1.11327,-0.2111 -1.74603,-0.15873c-0.96223,0.07964 -1.5873,0.31746 -1.74603,0.31746c-0.15873,0 -0.31746,0 -0.47619,0c-0.15873,0 -0.74646,-0.08593 -1.26984,-0.31746c-0.59851,-0.26476 -1.09647,-0.2375 -1.74603,-0.31746c-0.63017,-0.07758 -1.26984,0 -1.5873,0l-0.15873,0.15873"/>
        <path d="m46.11111,28.88889c0,0.15873 0.08681,0.2928 0.31746,1.26984c0.25787,1.09237 0.22362,2.54432 0.31746,3.49207c0.07975,0.80543 0.08969,1.58945 0.15873,2.69841c0.07952,1.27725 0.08018,2.22547 0.15873,3.17461c0.07964,0.96222 0.28503,1.76049 0.79365,2.85714c0.44801,0.96596 0.95443,1.40315 1.11111,1.42857c0.49546,0.0804 1.61101,0.27805 2.69841,0c1.31392,-0.33597 2.35904,-0.71039 3.33333,-0.95238c0.93705,-0.23274 1.5873,-0.47619 2.22222,-0.79365c0.63492,-0.31746 0.98228,-0.78471 1.11111,-1.26984c0.20774,-0.78225 0.39671,-2.0569 0.47619,-3.49207c0.07022,-1.2679 -0.05506,-2.36668 -0.31746,-3.49206c-0.40299,-1.7283 -0.47619,-3.80952 -0.47619,-5.07936c0,-0.31746 0.21154,-0.35665 0.31746,-0.15873c0.38191,0.7136 0.56213,2.20378 0.79365,3.49206c0.25424,1.4147 0.47541,2.99232 0.63492,4.60318c0.12513,1.26366 0,2.38095 0,3.49206c0,0.95238 -0.13313,1.62604 0.15873,2.38095c0.33375,0.86328 0.74646,1.19704 1.26984,1.42857c0.59851,0.26476 1.16032,0.2123 1.5873,0.47619c0.3819,0.23603 0.47619,0.47619 0.79365,0.63492l0.15873,0l0,0.15873l0.15873,0"/>
        <path d="m78.96825,29.04762c-0.15873,0 -0.63762,0.06546 -1.42857,0c-0.96223,-0.07964 -1.75653,-0.26386 -2.69841,-0.47619c-1.12729,-0.25413 -2.06349,-0.47619 -3.01588,-0.47619c-0.47619,0 -0.92426,0.34689 -1.5873,0.95238c-0.91544,0.83599 -1.9686,1.67358 -2.69842,2.38095c-0.56989,0.55236 -0.72497,0.96097 -0.63492,1.42857c0.16164,0.83937 0.59472,1.17005 1.26984,1.5873c0.60384,0.3732 1.39527,0.95083 2.53968,1.11111c1.10036,0.15411 2.51498,-0.23129 4.28571,-0.79365c1.72491,-0.54781 3.11865,-0.94802 3.80952,-1.11111c0.46345,-0.10941 0.7459,-0.18562 1.11111,0.15873c0.62193,0.58641 0.71204,1.88794 0.95238,3.1746c0.23498,1.25797 0.39655,2.68857 0.47619,3.65079c0.06546,0.79094 -0.34128,1.23549 -1.26984,1.90476c-1.46819,1.05821 -3.14173,2.01796 -4.60318,2.38095c-0.93704,0.23274 -1.42857,0.15873 -1.90476,0.15873c-0.63492,0 -1.41087,-0.507 -2.22222,-0.95238c-0.62227,-0.34159 -0.97333,-0.43735 -1.5873,-0.79365c-0.495,-0.28726 -0.63492,-0.47619 -0.79365,-0.63492l0,-0.15873"/>
        <path d="m86.74603,36.8254c0.15873,0 1.27179,0.07022 2.53968,0c1.43517,-0.07949 3.02073,-0.27861 4.44444,-0.47619c0.95635,-0.13272 1.44131,-0.20805 1.90476,-0.31746c0.34544,-0.08155 0.76568,-0.39464 1.11111,-0.47619c0.15448,-0.03647 0.32427,-0.11274 0.47619,-0.15873c0.54775,-0.16584 0.93931,-0.5376 1.11111,-0.95238c0.06075,-0.14665 0,-0.31746 0,-0.79365c0,-0.63492 -0.30701,-1.13401 -0.63493,-1.26984c-0.46374,-0.19209 -0.95238,-0.15873 -1.74603,0c-0.79365,0.15873 -1.44012,0.29871 -2.22222,0.79365c-0.4836,0.30604 -1.03114,0.93774 -1.11111,1.5873c-0.09697,0.7877 0.05085,1.27394 0,1.5873c-0.08041,0.49547 -0.40691,0.90516 -0.79366,1.74603c-0.41949,0.91205 -0.4998,1.92599 -0.31746,2.69841c0.16309,0.69087 0.8308,1.18935 1.5873,1.5873c1.01302,0.53288 2.22222,1.11111 3.65079,1.11111c1.74603,0 3.31996,-0.22643 4.7619,-0.47619c1.26095,-0.21841 2.38095,-0.47619 3.33334,-0.79365l0.63492,-0.31746l0.47619,-0.15873" />
        <path d="m118.96825,13.96825c0,0.63492 0,1.26984 0,2.22222c0,1.11111 -0.30633,2.38239 -0.47619,3.65079c-0.14898,1.11246 -0.15873,2.38095 -0.15873,3.49206c0,0.63492 0,1.11111 0,1.42857c0,0.31746 0.07628,0.64107 0,1.11111c-0.08041,0.49547 -0.39622,1.09647 -0.4762,1.74603c-0.09698,0.7877 -0.01533,1.74871 0.15874,2.69841c0.14592,0.7961 0.39622,1.57266 0.47619,2.22222c0.09697,0.7877 0.39662,1.8963 0.47619,3.01587c0.03376,0.47499 0,0.63492 0,0.79365l0,0.15873" />
        <path d="m118.80952,41.5873c0.15873,0 0.31746,0 0.47619,0c0.15873,0 0.34493,0.13535 0.47619,0.31746c0.20753,0.28793 0.31747,0.63492 0.31747,0.79365c0,0.31746 0.15873,0.47619 0.15873,0.63492c0,0.15873 0.08345,0.34117 0,0.47619c-0.1866,0.30193 -0.66021,0.41439 -1.11111,0.63492c-0.51411,0.25145 -0.58626,0.54902 -0.79365,0.63492c-0.2933,0.12149 -0.52269,0.27097 -0.63493,0.15873c-0.11224,-0.11224 -0.15873,-0.31746 -0.15873,-0.47619c0,-0.15873 0,-0.31746 0,-0.63492c0,-0.15873 0.12226,-0.48043 0.15873,-0.63492c0.08154,-0.34544 0.39029,-0.58626 0.4762,-0.79365c0.06075,-0.14665 0.04649,-0.52268 0.15873,-0.63492c0.11224,-0.11224 0.31746,0 0.47619,0l0.15873,0l0.15873,0l0.15873,0" />
    </g>
</svg>