<svg width="100" height="100" xmlns="http://www.w3.org/2000/svg">
 <g id="Layer_1">
  <title>Layer 1</title>
  <path stroke-width="4" d="m8.06452,41.82796c0,-0.21505 0.05516,-0.38645 0.21505,-0.64516c0.35753,-0.57849 0.31963,-0.82231 0.43011,-1.29033c0.09882,-0.4186 0.21505,-0.86021 0.43011,-1.29032c0.21505,-0.43011 0.31962,-0.82231 0.43011,-1.29032c0.09882,-0.4186 0.13029,-0.8644 0.21505,-1.72043c0.10805,-1.09122 0.325,-2.15698 0.43011,-3.01075c0.10834,-0.88005 0.25556,-1.27821 0.43011,-1.93549c0.28145,-1.05983 0.40459,-2.15596 0.64516,-3.22581c0.19453,-0.86509 0.39725,-1.94437 0.64516,-2.7957c0.19014,-0.65294 0.43011,-1.50537 0.43011,-1.93548c0,-0.21505 0.21505,-0.86021 0.21505,-1.07527c0,-0.21505 0.06299,-0.70815 0.21505,-0.86022c0.15207,-0.15207 0.06299,-0.27804 0.21505,-0.43011c0.15207,-0.15207 0.25228,0.18338 0.43011,0.43011c0.56235,0.78021 0.91847,2.1298 1.50538,3.87097c0.71716,2.12761 1.36412,3.62926 1.72043,4.73118c0.27281,0.84368 0.72528,2.00077 1.50538,3.44086c0.73864,1.36356 1.47907,2.37978 1.72043,2.7957c0.38919,0.67064 0.86021,1.72043 1.72043,3.01075c0.86021,1.29032 1.29032,2.15054 1.72043,2.58065c0.43011,0.43011 0.92445,0.60668 1.29032,1.29032c0.10147,0.18961 0.16564,0.42435 0.21505,0.21505c0.11048,-0.46801 0.43011,-0.86021 0.64516,-1.72043c0.21505,-0.86021 0.45525,-2.14358 0.86021,-3.65591c0.45871,-1.71303 0.72895,-3.46853 1.29032,-5.80645c0.52422,-2.18317 1.07527,-3.65591 1.29032,-4.73118c0.21505,-1.07527 0.32118,-2.12442 0.43011,-2.7957c0.0689,-0.42455 0.13276,-0.44648 0.21505,-0.64516c0.11639,-0.28098 0.19958,-0.56152 0.64516,-1.07527c0.31507,-0.36328 0.64516,-0.86021 1.07527,-1.72043l0.21505,-0.64516l0,-0.21505l0,-0.21505" id="svg_1" stroke="#000" fill="none"/>
  <path stroke-width="4" d="m42.47312,22.25806c0.21505,0 0.86021,0 1.72043,0c1.07527,0 2.36559,0 3.65591,0c1.50538,0 2.86237,0.14248 3.44086,-0.21505c0.25871,-0.15989 0.43011,-0.21505 0.86022,-0.21505c0.86021,0 1.86049,0.27678 2.58064,1.07527c0.83983,0.93119 1.29033,1.93548 1.93549,3.01075c0.64516,1.07527 1.1717,2.10874 1.50537,3.01075c0.30763,0.83161 0.75188,1.7006 0.86021,2.58065c0.1051,0.85377 0,1.72043 0,2.58064c0,0.64516 0.17221,1.31373 0,1.93549c-0.33472,1.20847 -1.10419,2.05731 -1.72043,2.7957c-0.68898,0.82554 -1.72043,1.07527 -2.58065,1.50538c-0.86021,0.43011 -1.74903,0.98269 -2.58064,1.29032c-0.90201,0.33368 -1.93061,0.66568 -2.7957,0.86021c-1.06985,0.24057 -2.15054,0.43011 -2.7957,0.43011c-0.64516,0 -1.29032,-0.21505 -1.72043,-0.64516c-0.43011,-0.43011 -0.79874,-1.12079 -1.29033,-1.72043c-0.57845,-0.7056 -1.29032,-1.50538 -1.72043,-1.93549c-0.43011,-0.43011 -0.97663,-1.01133 -1.29032,-1.72043c-0.35871,-0.81089 -0.43011,-1.72043 -0.43011,-2.58065c0,-0.86021 0,-1.72043 0,-2.36559c0,-0.86021 0.07423,-1.75849 0.43011,-2.7957c0.15606,-0.45485 0.59575,-0.86597 0.64516,-1.07527c0.11048,-0.46801 0.47103,-0.61968 0.86021,-1.29032c0.48273,-0.83183 0.64516,-1.50537 0.86021,-1.72043c0.21505,-0.21506 0.05046,-0.46285 0.21505,-0.86022c0.11639,-0.28098 0.14893,-0.47011 0.43011,-0.86021c0.17783,-0.24673 0.21505,-0.43011 0.43011,-0.64516l0,-0.21505l0,-0.21505" id="svg_2" stroke="#000" fill="none"/>
  <path stroke-width="4" d="m13.01075,67.63441c0,-0.21505 0.0823,-0.66153 0,-0.86021c-0.11639,-0.28098 -0.43011,-0.64516 -0.64516,-0.86021c-0.21505,-0.21506 -0.22081,-0.59576 -0.43011,-0.64516c-0.46801,-0.11048 -1.07527,-0.21505 -1.50538,-0.21505c-0.43011,0 -0.86021,0 -1.07527,0c-0.21505,0 -0.64516,0.21505 -0.86021,0.43011c-0.21505,0.21505 -0.48057,0.46284 -0.64516,0.86021c-0.11639,0.28098 -0.18321,0.47922 -0.43011,1.07527c-0.11639,0.28098 -0.43011,0.86021 -0.43011,1.29032c0,0.43011 -0.10612,0.61904 -0.21505,1.29032c-0.10334,0.63683 -0.21505,1.07527 -0.21505,1.29032c0,0.21506 0,0.43011 0,0.64516c0,0.21505 0,0.64516 0,1.07526c0,0.43011 0,0.64516 0.21505,1.07527c0.21505,0.43011 0.48527,1.03162 0.64516,1.29032c0.35753,0.57849 0.94966,1.45399 1.29032,2.15054c0.29879,0.61091 0.27804,0.92321 0.43011,1.07527c0.15207,0.15207 0.27804,0.06299 0.43011,0.21506c0.15206,0.15206 0.22656,0.11623 0.64516,0.21505c0.46801,0.11048 0.60726,0.31963 1.07527,0.43011c0.2093,0.04941 0.66242,0.14823 1.29032,0c0.93602,-0.22096 2.12442,-0.96633 2.7957,-1.07526c0.21228,-0.03445 0.4931,-0.06299 0.64516,-0.21506c0.15207,-0.15207 0.18338,-0.25228 0.43011,-0.43011c0.39011,-0.28117 0.43011,-0.43011 0.64516,-0.86021c0.21505,-0.43011 0.07258,-0.71183 0.43011,-1.29032c0.15989,-0.25871 0.43011,-0.86021 0.64516,-1.72044l0.43011,-0.64516l0,-0.21506l0,-0.21505" id="svg_3" stroke="#000" fill="none"/>
  <path stroke-width="4" d="m23.33333,80.53764c0,-0.21506 0.21506,-0.64516 0.43011,-1.29032c0.21506,-0.64516 0.18953,-1.5108 0.43011,-2.58065c0.19453,-0.86509 0.39725,-1.94437 0.64516,-2.7957c0.19014,-0.65294 0.32118,-1.26421 0.43011,-1.93548c0.10334,-0.63683 0.43011,-1.50538 0.64516,-2.58065c0.21505,-1.07526 0.26744,-2.3811 0.43011,-3.2258c0.21901,-1.13721 0.93401,-2.12389 1.29032,-3.22581c0.27281,-0.84368 0.46114,-1.27616 0.64516,-1.72043c0.26025,-0.62829 0.36418,-0.95888 0.64516,-1.07527c0.19868,-0.0823 0.9571,-0.11818 1.50538,0.43011c0.54828,0.54828 0.96479,1.03736 1.07527,1.50537c0.19764,0.8372 0.21505,1.93548 0.21505,2.7957c0,1.07527 0.15766,2.37526 0,3.65591c-0.21668,1.7601 -0.75232,3.21246 -0.86022,4.51613c-0.10643,1.28593 -0.21505,2.58065 -0.21505,3.87097c0,1.29032 0,2.7957 0,3.87096c0,0.86021 0.32117,1.47926 0.43011,2.15054c0.10334,0.63683 0.21505,1.29032 0.21505,1.50537c0,0.43011 0,0.64516 0,0.86021l0,0.64516l0,0.43011l0,0.21506" id="svg_4" stroke="#000" fill="none"/>
  <path stroke-width="4" d="m21.39785,70.43011c0.43011,0 1.07527,0.21506 2.15054,0.21506c0.86021,0 2.15054,0 3.01075,0c0.64516,0 1.29032,0 1.93548,0c0.64516,0 1.29032,0 1.72043,0l0.43011,0l0.21505,0l0.43011,0" id="svg_5" stroke="#000" fill="none"/>
  <path stroke-width="4" d="m39.03226,82.68817c0,-0.21505 0,-1.29032 0,-2.36559c0,-1.29032 -0.10416,-3.02518 0.21505,-4.94624c0.325,-1.95588 0.64516,-3.65591 0.64516,-4.51613c0,-0.64516 0.02636,-1.50126 0.21506,-2.7957c0.2501,-1.71568 0.21505,-3.22581 0.21505,-4.08602c0,-0.64516 0.30413,-0.98619 0,-1.29032c-0.15207,-0.15207 -0.31372,-0.14912 -0.43011,-0.43011c-0.0823,-0.19868 0,-0.43011 0.21506,-0.43011c0.64516,0 1.29032,-0.21505 1.93548,-0.21505c0.64516,0 1.05544,-0.10672 1.93548,-0.21505c0.64033,-0.07883 1.29866,-0.10334 1.93549,0c0.67128,0.10893 0.86021,0.43011 1.29032,1.07527c0.43011,0.64516 0.43011,1.50537 0.43011,2.36559c0,0.43011 0.18695,1.31801 0,1.93549c-0.22469,0.74212 -0.71187,1.22989 -1.29032,1.93549c-0.49158,0.59964 -1.27275,1.5295 -2.15054,2.15054c-0.63298,0.44785 -1.03737,0.53468 -1.50538,0.64516c-0.6279,0.14823 -1.73154,0.13779 -2.58064,0c-0.67128,-0.10893 -1.29033,-0.64516 -1.93549,-0.64516c-0.43011,0 -0.64516,0 -0.86021,0l0,-0.21505" id="svg_6" stroke="#000" fill="none"/>
  <path stroke-width="4" d="m64.4086,63.33333c-0.21505,0 -0.43011,0 -0.86021,0c-1.07527,0 -2.36559,0 -3.87097,0c-2.36559,0 -4.73118,0 -6.66666,0l-1.93549,0.21505l-1.50537,0.21505l-0.64516,0.21505" id="svg_7" stroke="#000" fill="none"/>
  <path stroke-width="4" d="m54.51613,82.68817c0.21505,-0.86021 0.41503,-2.36755 0.64516,-4.08602c0.20184,-1.50721 0.32237,-3.00071 0.43011,-4.73119c0.06681,-1.07319 0.32117,-1.69431 0.43011,-2.36559c0.0689,-0.42455 -0.06889,-0.86577 0,-1.29032c0.10893,-0.67128 0.21505,-1.29033 0.21505,-1.72044c0,-0.43011 0.21505,-0.64516 0.21505,-0.86021c0,-0.43011 -0.04941,-0.86597 0,-1.07526c0.11048,-0.46801 0.32117,-1.04916 0.43011,-1.72044c0.10334,-0.63683 0,-1.07527 0,-1.50537l0.21505,0" id="svg_8" stroke="#000" fill="none"/>
  <path stroke-width="4" d="m61.6129,67.41936c0.21505,0 0.64516,0 1.50537,0c0.86021,0 1.93549,0 3.22581,0c0.86021,0 1.50538,0 2.15054,0c0.64516,0 1.07527,0 1.72044,0c0.21505,0 0.86021,0 1.29032,0c0.43011,0 1.50537,0 1.93548,0c0.21506,0 0.43011,0 0.64516,0l0.21506,0l0.21505,0" id="svg_9" stroke="#000" fill="none"/>
  <path stroke-width="4" d="m62.04301,82.25806c0.43011,0 0.88438,-0.11765 1.93548,-0.43011c1.11009,-0.33 2.34963,-0.75217 3.44086,-0.86021c1.07003,-0.10595 1.93548,0 3.01075,0c0.64516,0 1.29032,0.21505 1.50538,0.21505c0.21505,0 0.43011,0 0.64516,0c0.21506,0 0.43011,0 0.64516,0c0.21505,0 0.4931,0.15206 0.64516,0c0.15206,-0.15206 0.43011,-0.21505 0.43011,-0.43011l0.21505,0" id="svg_10" stroke="#000" fill="none"/>
  <path stroke-width="4" d="m67.63441,68.06451c0,0.21506 0.0823,0.44648 0,0.64516c-0.11639,0.28098 -0.21505,0.43011 -0.21505,0.64516c0,0.21506 0,0.43011 0,0.64516c0,0.64516 0,1.07527 0,1.29032c0,0.21506 0,0.43011 0,0.86021c0,0.21506 0,0.43011 0,0.64516c0,0.21505 0,0.64516 0,0.86021c0,0.43011 0,0.86021 0,1.07527c0,0.21505 0,0.43011 0,0.64516c0,0.64516 0,0.86021 0,1.29032c0,0.43011 0,0.86021 0,1.29032c0,0.21506 0.09866,0.36419 0.21505,0.64516c0.0823,0.19868 -0.15207,0.4931 0,0.64516c0.15207,0.15207 0.21506,0.21505 0.21506,0.43011l0,0.21505l0,0.21506l0,0.21505" id="svg_11" stroke="#000" fill="none"/>
  <path stroke-width="4" d="m77.31183,72.7957c0.21505,0 0.43011,0 0.64516,0c0.21506,0 0.43011,0 0.64516,0c0.21506,0 0.64516,0 0.86021,0c0.43011,0 0.70815,-0.15206 0.86021,0c0.15206,0.15206 0.13276,0.66153 0.21506,0.86021c0.11639,0.28098 0.31372,0.36418 0.43011,0.64516c0.0823,0.19868 0,0.43011 0,0.86021c0,0.43011 0,0.86021 0,1.29032c0,0.21505 0,0.43011 0,0.64516c0,0.21506 -0.03212,0.31705 -0.21506,0.43011c-0.40906,0.25281 -0.3922,0.53468 -0.86021,0.64516c-0.4186,0.09882 -0.86021,0 -1.07526,0c-0.21506,0 -0.43011,0 -0.64516,0c-0.21506,0 -0.43011,0 -0.64516,0c-0.21505,0 -0.27804,-0.06299 -0.43011,-0.21506c-0.15206,-0.15206 0,-0.64516 0,-1.07526c0,-0.43011 0,-1.07527 0,-1.29032c0,-0.21506 0,-0.64516 0,-0.86021c0,-0.43011 0,-0.86022 0,-1.07527c0,-0.21506 0.063,-0.27805 0.21506,-0.43011c0.15206,-0.15206 0.43011,-0.21506 0.64516,-0.21506l0,-0.21505" id="svg_12" stroke="#000" fill="none"/>
  <path stroke-width="4" d="m84.62366,82.68817c0,-0.64516 0,-1.29032 0,-2.15054c0,-0.64516 0,-1.29032 0,-1.93549c0,-0.43011 0,-1.07527 0,-1.50538c0,-0.43011 0,-0.86021 0,-1.29032c0,-0.43011 0,-1.07526 0,-1.50537c0,-0.64516 0.09866,-1.43945 0.21505,-1.72044c0.16459,-0.39737 0.16565,-0.43586 0.21506,-0.64516c0.11048,-0.46801 0.31372,-0.57923 0.43011,-0.86021c0.0823,-0.19868 0,-0.43011 0,-0.64516c0,-0.21505 0.43011,-0.43011 0.21505,-0.43011c-0.21506,0 0.107,1.48942 0.21506,2.58064c0.08476,0.85603 0.18874,1.51957 0.43011,1.93549c0.38918,0.67065 0.57905,1.11527 0.86021,1.50538c0.35566,0.49345 0.90469,1.03497 1.29032,1.50537c0.49158,0.59964 0.80086,1.33823 1.50538,2.15054c0.59781,0.68927 1.01193,1.57982 1.50538,1.93548c0.39011,0.28117 0.79874,0.90574 1.29032,1.50538c0.19282,0.2352 0.4931,0.063 0.64516,0.21506c0.15206,0.15206 0,0 0,-0.21506c0,-0.43011 0,-1.07526 0,-2.15054c0,-0.43011 0,-1.07527 0,-1.93549c0,-0.86021 0.10458,-1.25242 0.21506,-1.72043c0.04941,-0.2093 -0.04941,-0.43586 0,-0.64516c0.11048,-0.46801 0.24608,-0.84605 0.43011,-1.29032c0.26025,-0.62829 0.21506,-1.07526 0.43011,-1.72043c0.21506,-0.64516 0.42047,-1.19337 0.64516,-1.93549c0.18696,-0.61748 0.06682,-1.52263 0.21505,-2.15054c0.11048,-0.46801 0.21506,-1.07527 0.43011,-1.72043l0.21506,-0.43011l0,-0.21506l0,-0.21505" id="svg_13" stroke="#000" fill="none"/>
  <path stroke-width="4" d="m94.08602,90.43011c-0.21506,0 -0.43566,-0.06889 -0.86021,0c-0.67128,0.10893 -1.27821,0.47061 -1.93549,0.64516c-1.05982,0.28145 -2.36559,0.64516 -3.44086,1.07526c-1.07527,0.43011 -1.93549,1.07526 -3.01076,1.72043c-1.07526,0.64516 -1.65849,1.07133 -2.79569,1.29033c-0.8447,0.16267 -1.81126,0.09897 -3.22581,-1.29033c-1.84753,-1.81455 -2.58065,-3.01075 -3.01076,-3.44086c-0.21505,-0.21505 -0.50455,-0.36677 -0.86021,-0.86021c-0.28117,-0.39011 -0.5482,-0.85058 -1.29032,-1.07527c-0.20583,-0.06232 -0.67942,-0.08372 -1.29032,0.21506c-0.69654,0.34067 -1.40263,1.15714 -1.93549,1.72043c-0.73894,0.78114 -1.88601,1.4083 -2.7957,1.72043c-1.03721,0.35587 -1.74919,0.67715 -2.7957,0.43011c-1.40403,-0.33144 -2.68885,-1.88844 -4.30107,-2.7957c-1.42732,-0.80321 -2.7957,-1.29032 -3.65591,-1.29032c-1.07527,0 -1.87812,0.69521 -3.01075,1.93549c-1.02544,1.12289 -1.84325,2.0816 -2.7957,2.58064c-0.60238,0.31562 -1.07527,0.43011 -1.50537,0.43011c-0.86021,0 -2.18113,0.13743 -3.44086,-0.21505c-1.11526,-0.31206 -1.85968,-1.06936 -2.7957,-1.29032c-1.0465,-0.24705 -1.99766,-0.20458 -3.01075,0.21505c-1.43273,0.59345 -2.60179,2.34631 -4.08602,2.7957c-0.82331,0.24928 -1.73351,0.29232 -3.22581,0c-1.7403,-0.3409 -3.44086,-0.86021 -5.16129,-1.29032c-1.72043,-0.43011 -3.42306,-0.86021 -4.73118,-0.86021c-1.30812,0 -2.15054,0.43011 -2.36559,0.43011c-0.43011,0 -1.1299,-0.07683 -2.36559,-0.64516c-1.13924,-0.52398 -1.29032,-0.64516 -1.50538,-0.64516c-0.21505,0 -0.57923,0.31372 -0.86021,0.43011c-0.39737,0.1646 -1.29032,0 -2.58065,0c-1.29032,0 -2.59453,0.17224 -3.65591,0c-0.67128,-0.10893 -1.29032,-0.21506 -1.50538,-0.21506l-0.21505,0l-0.21505,0" id="svg_14" stroke="#000" fill="none"/>
 </g>
</svg>