<svg width="50" height="50" xmlns="http://www.w3.org/2000/svg">
    <g stroke="#000" fill="none">
        <path d="m36.66663,42.45608c0,0.17544 -0.17544,0.17544 -0.87719,0.17544c-1.22807,0 -2.44311,-0.08729 -3.33332,-0.17544c-0.52375,-0.05186 -0.70175,-0.17544 -0.87719,-0.17544c-0.17544,0 -0.35088,0 -0.52631,0c-0.17544,0 -0.35088,0 -0.52631,0c-0.52631,0 -1.0592,0.10718 -1.92982,0c-0.71793,-0.08838 -1.7382,-0.43793 -2.45613,-0.52631c-0.52237,-0.06431 -1.05263,-0.17544 -1.57894,-0.17544c-0.52631,0 -0.87719,0 -1.05263,0c-0.17544,0 -0.35088,0 -0.52631,0c-0.35088,0 -0.88245,-0.08574 -1.57894,0c-0.71793,0.08838 -1.3822,0.26201 -1.92982,0.35088c-0.69269,0.11241 -1.4035,0 -1.75438,0c-0.35088,0 -0.70175,0 -1.05263,0c-0.35088,0 -0.87719,0.17544 -1.57894,0.17544c-0.70175,0 -1.05263,0 -1.4035,0c-0.17544,0 -0.52631,0 -0.87719,0c-0.17544,0 -0.52631,0 -0.87719,0c-0.35088,0 -0.5777,-0.12405 -0.70175,0c-0.12405,0.12405 -0.52631,0.17544 -0.70175,0.17544c-0.17544,0 -0.35088,0 -0.52631,0c-0.17544,0 -0.35088,0 -0.87719,0c-0.17544,0 -0.35088,0.17544 -0.70175,0.17544c-0.35088,0 -0.75314,0.12405 -0.87719,0c-0.12405,-0.12405 0.08061,-0.36026 0,-0.70175c-0.18026,-0.7636 -0.31401,-1.24183 -0.52631,-1.75438c-0.15012,-0.36243 -0.17544,-0.52632 -0.17544,-0.70176c0,-0.17544 0.08049,-0.47253 0.17544,-0.70175c0.20141,-0.48625 0.09482,-0.71114 0.17544,-1.05263c0.09013,-0.3818 0.17544,-0.52631 0.17544,-1.05263c0,-0.70175 -0.05452,-1.24215 -0.17544,-1.75438c-0.09013,-0.3818 -0.11113,-0.88113 -0.17544,-1.4035c-0.08838,-0.71793 -0.11113,-1.23201 -0.17544,-1.75438c-0.08838,-0.71793 -0.26444,-1.40777 -0.35088,-2.28069c-0.08815,-0.89021 -0.26075,-1.54802 -0.35088,-1.92982c-0.08061,-0.34149 0.08431,-0.70855 0,-1.22807c-0.08887,-0.54762 -0.35088,-0.87719 -0.35088,-1.22807c0,-0.17544 0,-0.52631 0,-0.70175l0,-0.17544l0,-0.17544"/>
        <path d="m2.10534,24.38597c0.17544,0 0.35088,0 0.52631,0c0.17544,0 0.36423,-0.1083 0.52631,-0.17544c0.22922,-0.09495 0.49551,-0.36805 0.70175,-0.70175c0.09223,-0.14924 -0.07267,-0.27821 0.17544,-0.52631c0.12405,-0.12405 0.52631,-0.17544 0.70175,-0.35088c0.17544,-0.17544 0.52631,-0.35088 0.70175,-0.52632c0.17544,-0.17544 0.06787,-0.51186 0.52631,-0.70175c0.32417,-0.13428 0.5998,-0.07348 0.87719,-0.35088c0.27739,-0.27739 0.87719,-0.52631 1.4035,-0.70175c0.52631,-0.17544 0.90035,-0.48339 1.57894,-0.87719c0.5471,-0.31749 0.94246,-0.59387 1.57894,-1.05263c0.60382,-0.43521 1.01976,-0.91347 1.4035,-1.22807c0.48918,-0.40103 1.01219,-0.59491 1.4035,-1.22807c0.29167,-0.47193 0.67591,-0.73212 0.87719,-0.87719c0.31824,-0.22938 0.47464,-0.41161 0.87719,-0.70175c0.31824,-0.22938 0.49345,-0.5626 0.87719,-0.87719c0.48918,-0.40103 0.98488,-0.57842 1.40351,-1.05263c0.25962,-0.29409 0.30072,-0.73889 0.70175,-1.22807c0.31459,-0.38374 0.62114,-0.88658 0.70175,-1.22807c0.09013,-0.3818 0.35088,-0.35088 0.52631,-0.35088c0.17544,0 0.40226,-0.12405 0.52631,0c0.12405,0.12405 0.55895,0.47237 0.87719,0.70175c0.40255,0.29014 0.65984,0.77472 1.22807,1.05263c0.49837,0.24374 0.90982,0.47238 1.22807,0.70175c0.40255,0.29014 1.05263,0.87719 1.57894,1.22807c0.52631,0.35088 0.76962,0.86274 1.22807,1.05263c0.16208,0.06714 0.52631,0.35088 1.05263,0.70175c0.52631,0.35088 0.93158,0.58552 1.4035,0.87719c0.63316,0.39131 0.87719,0.70175 1.22807,1.05263c0.35088,0.35088 0.62424,0.61742 1.22807,1.05263c0.63649,0.45875 1.33527,0.68913 1.75438,1.05263c0.29636,0.25703 0.35088,0.35088 0.70175,0.52631c0.35088,0.17544 0.71511,0.45918 0.87719,0.52631c0.22922,0.09495 0.38351,0.1215 0.70175,0.35088c0.20127,0.14507 0.29709,0.43137 0.52631,0.52631c0.16208,0.06714 0.52631,0.17544 0.87719,0.52631c0.17544,0.17544 0.18879,0.28374 0.35088,0.35088c0.22922,0.09495 0.22682,0.40226 0.35088,0.52631c0.12405,0.12405 0.17544,0.17544 0.35088,0.17544l0,0.17544l0.17544,0" id="svg_2" />
        <path d="m36.66663,42.63152c-0.17544,0 -0.26201,-0.15413 -0.35088,-0.70175c-0.05621,-0.34634 0,-0.87719 0,-1.05263c0,-0.17544 0,-0.52631 0,-1.05263c0,-0.35088 0,-0.70176 0,-0.87719c0,-0.17544 0,-0.35088 0,-0.52631c0,-0.17544 0,-0.35088 0,-0.70175c0,-0.35088 0,-0.70175 0,-1.05263c0,-0.70175 0.17544,-1.22807 0.17544,-2.10526c0,-0.70175 0,-1.22807 0,-1.75438c0,-0.52631 0,-1.05263 0,-1.75438c0,-0.52631 -0.23564,-1.03088 -0.52631,-1.92982c-0.22255,-0.68826 -0.47011,-1.58347 -0.52631,-1.92982c-0.08887,-0.54762 -0.33642,-0.76962 -0.52631,-1.22807c-0.20141,-0.48625 -0.09482,-0.71114 -0.17544,-1.05263c-0.09013,-0.3818 -0.43745,-0.85588 -0.52631,-1.4035c-0.05621,-0.34635 0,-0.52631 -0.17544,-0.52631l0,-0.17544l0,-0.35088l0,-0.17544" id="svg_3" />
        <path d="m3.33341,23.33334c0.17544,0 0.35219,-0.02143 0.52631,0c0.71793,0.08838 1.56806,0.61373 2.63157,0.70175c1.04904,0.08682 1.92982,0.17544 2.63157,0.17544c0.87719,0 1.4035,0 2.45613,0c1.05263,0 1.75438,0 2.80701,0c1.22807,0 1.92982,-0.17544 2.63157,-0.17544c0.52632,0 1.40351,-0.35088 2.28069,-0.35088c0.87719,0 1.4035,-0.17544 1.75438,-0.17544c0.35088,0 0.88113,0.06431 1.4035,0c0.71793,-0.08838 1.16623,-0.34605 1.92982,-0.52631c0.51223,-0.12092 1.06522,-0.12127 1.92982,-0.35088c1.0724,-0.28479 1.4035,-0.52632 1.75438,-0.52632c0.35088,0 0.70175,-0.17544 0.87719,-0.17544c0.35088,0 0.47253,-0.08049 0.70175,-0.17544c0.16208,-0.06714 0.5777,0.12405 0.70175,0c0.12405,-0.12405 0.47253,-0.25593 0.70175,-0.35088c0.32417,-0.13427 0.87719,0 1.05263,0c0.52631,0 1.02171,-0.08531 1.4035,-0.17544c0.34149,-0.08061 0.52631,0 0.87719,0c0.35088,0 0.52631,0 0.70175,-0.17544l0.17544,0" id="svg_4" />
        <path d="m12.45618,41.05258c0,-0.17544 0.08049,-0.29709 0.17544,-0.52631c0.13427,-0.32417 0,-0.70175 0,-0.87719c0,-0.52631 -0.2625,-1.21189 -0.35088,-1.92982c-0.06431,-0.52237 0.08431,-0.88399 0,-1.4035c-0.08887,-0.54762 -0.35088,-1.22807 -0.35088,-2.10526c0,-0.87719 -0.26201,-1.3822 -0.35088,-1.92982c-0.08431,-0.51952 -0.43745,-1.20676 -0.52631,-1.75438c-0.0562,-0.34635 -0.17544,-0.70175 -0.17544,-0.87719c0,-0.17544 -0.1083,-0.36423 -0.17544,-0.52631c-0.09495,-0.22922 0.52888,-0.12358 1.05263,-0.17544c0.89021,-0.08815 1.57894,-0.17544 1.92982,-0.17544c0.52631,0 1.22807,0 2.28069,0c1.4035,0 2.10526,0 2.45613,0c0.17544,0 0.17544,0.17544 0.17544,0.52631c0,0.70175 0.17544,1.4035 0.17544,2.10526c0,0.35088 0.17544,0.70175 0.17544,1.05263c0,0.52631 0.17544,0.87719 0.17544,1.4035c0,0.52631 0.17544,1.05263 0.17544,1.57894c0,0.35088 0,0.70175 0,1.05263c0,0.35088 0,0.87719 0,1.22807c0,0.35088 0,0.70175 0,1.05263c0,0.35088 0,0.52631 0,0.70175c0,0.35088 0,0.52632 0,0.70176c0,0.17544 0,0.35088 0,0.52631c0,0.17544 0,0.52631 0,0.87719l0,0.17544" id="svg_5" />
        <path d="m31.22805,26.31578c0,0.17544 0,0.35088 0,0.52631c0,0.35088 0,0.70175 0,1.05263c0,0.35088 0,0.87719 0,1.22807c0,0.35088 0,0.70175 0,1.22807c0,0.35088 0.17544,0.70175 0.17544,1.22807c0,0.35088 0.11923,0.70629 0.17544,1.05263c0.08887,0.54762 0.17544,0.70175 0.17544,1.22807c0,0.17544 0.08706,0.68557 0.17544,1.4035c0.04287,0.34825 0.17544,0.70175 0.17544,1.05263c0,0.17544 0.12405,0.40226 0,0.52631c-0.12405,0.12405 -0.36026,0.09482 -0.70175,0.17544c-0.3818,0.09013 -0.70175,0.35088 -1.05263,0.35088c-0.17544,0 -0.35088,0.17544 -0.70175,0.17544c-0.17544,0 -0.70175,0 -0.87719,0c-0.17544,0 -0.70175,0 -1.05263,0c-0.17544,0 -0.47253,0.08049 -0.70175,0.17544c-0.32417,0.13427 -0.53101,-0.04031 -0.70175,0c-0.3818,0.09013 -0.70175,0.17544 -1.05263,0.17544c-0.17544,0 -0.31995,0.08531 -0.70175,0.17544c-0.17074,0.04031 -0.35088,0 -0.70175,0c-0.17544,0 -0.35088,0 -0.52631,0c-0.17544,0 -0.29709,-0.08049 -0.52631,-0.17544c-0.16208,-0.06714 -0.22682,-0.22682 -0.35088,-0.35088c-0.12405,-0.12405 -0.31057,-0.18013 -0.35088,-0.35088c-0.09013,-0.3818 -0.35088,-0.35088 -0.35088,-0.52631c0,-0.35088 -0.08531,-1.02171 -0.17544,-1.4035c-0.08061,-0.34149 0,-0.70175 0,-1.05263c0,-0.35088 -0.06431,-0.7057 0,-1.22807c0.08838,-0.71793 0.18965,-1.42228 0.35088,-2.10526c0.09013,-0.3818 0.17544,-0.52631 0.17544,-1.05263c0,-0.70175 0,-1.4035 0,-1.92982c0,-0.17544 0,-0.35088 0,-0.52632c0,-0.35088 0,-0.52631 0,-0.87719c0,-0.17544 0.08049,-0.29709 0.17544,-0.52631c0.06714,-0.16208 0.35088,-0.35088 0.70175,-0.35088c0.35088,0 0.70175,0 0.87719,0c0.17544,0 0.70175,0 1.05263,0c0.52631,0 0.87719,-0.17544 1.05263,-0.17544c0.17544,0 0.35088,0 0.70175,0c0.35088,0 0.70175,0 1.05263,0c0.17544,0 0.35088,0 0.70175,0c0.17544,0 0.35088,0 0.52631,0c0.17544,0 0.35088,0 0.52631,0c0.35088,0 0.52631,0 0.70175,0c0.17544,0 0.22682,0.22682 0.35088,0.35088c0.12405,0.12405 0.35088,0.17544 0.35088,0.35088l0.17544,0" id="svg_6" />
        <path d="m22.98246,31.05261c0.17544,0.17544 0.52631,0.17544 0.87719,0.17544c0.70175,0 1.22807,0 1.75438,0c0.70175,0 1.22807,0 1.4035,0c0.17544,0 0.52632,0 0.70175,0c0.17544,0 0.52632,0 0.87719,0c0.17544,0 0.29709,-0.08049 0.52631,-0.17544c0.16208,-0.06714 0.40226,0.12405 0.52631,0c0.12405,-0.12405 0.35088,-0.17544 0.52631,-0.35088l0.17544,-0.17544l0.17544,0l0,-0.17544" id="svg_7" />
        <path d="m26.31578,26.31578c0,0.35088 0,1.05263 0,1.75438c0,0.52631 0,1.05263 0,1.4035c0,0.17544 0,0.52631 0,0.70175c0,0.17544 0,0.52631 0,0.70175c0,0.17544 -0.0562,0.53084 0,0.87719c0.08887,0.54762 0.42384,0.83528 0.70175,1.40351c0.24375,0.49837 0.43618,0.84627 0.52632,1.22807c0.04031,0.17075 0.17544,0.17544 0.17544,0.35088c0,0.17544 0,0.35088 0,0.52631c0,0.17544 0,0.35088 0,0.52631c0,0.17544 -0.17544,0.35088 -0.17544,0.52631l0,0.17544l0,0.17544l-0.17544,0" id="svg_8" />
        <path d="m16.66669,35.43856c0,0.17544 -0.12405,0.40226 0,0.52631c0.12405,0.12405 0.40226,0.12405 0.52631,0c0.12405,-0.12405 0.17544,-0.17544 0.35088,-0.35088c0.17544,-0.17544 0,-0.17544 -0.17544,-0.17544l-0.17544,0" id="svg_9" />
    </g>
</svg>