<svg width="25" height="50" xmlns="http://www.w3.org/2000/svg">
 <g id="Layer_1">
  <title>Layer 1</title>
  <path d="m6.99716,11.0347c0,0.05917 -0.05347,0.47443 -0.17751,1.12424c-0.16972,0.88908 -0.36633,1.84521 -0.5917,2.72183c-0.29355,1.14183 -0.70138,2.48706 -1.00589,3.84607c-0.34522,1.54066 -0.69345,2.96419 -1.06507,4.02358c-0.39658,1.13057 -0.92715,2.14163 -1.42009,2.95852c-0.39859,0.66054 -0.73941,1.00044 -0.76921,1.24258c-0.00723,0.05873 0.05917,0.05917 0.47336,0.05917c0.82838,0 2.19204,0.06533 4.3786,-0.05917c2.72769,-0.15532 5.32411,-0.77349 7.39629,-1.36092c1.89234,-0.53644 3.36587,-1.03775 4.67445,-1.30175c1.00126,-0.202 1.65232,-0.3127 2.07096,-0.41419c0.29322,-0.07109 0.53253,-0.05917 0.94673,-0.05917c0.47336,0 1.00589,0.05917 1.36092,0.05917l0.05917,0" id="svg_1" stroke="#000" fill="none"/>
  <path d="m17.23362,8.66789c0,0.11834 0,0.23668 0,0.5917c0,0.5917 0,1.47926 0,2.66266c0,1.47926 -0.02535,3.43203 0,5.56201c0.02959,2.48568 0.26041,4.90918 0.41419,6.92292c0.13996,1.83276 0.14795,3.49135 0.17751,4.91113c0.02959,1.42101 0.12535,2.84224 0.05917,3.90524c-0.05928,0.95225 -0.29197,1.83477 -0.41419,2.78101c-0.1147,0.88803 -0.20705,1.65431 -0.23668,2.1893c-0.03599,0.64988 0,1.30175 0,1.71593l0.05917,0.23668" id="svg_2" stroke="#000" fill="none"/>
 </g>
</svg>