<svg width="25" height="50" xmlns="http://www.w3.org/2000/svg">
 <g id="Layer_1">
  <title>Layer 1</title>
  <path d="m4.1129,38.65591c0,-0.21505 0,-0.64516 0,-1.72043c0,-1.07527 0,-2.36559 0,-3.44086c0,-1.07527 -0.21505,-2.36559 -0.21505,-3.87097c0,-1.72043 -0.08869,-3.01442 0,-4.08602c0.10789,-1.30366 0.43011,-2.36559 0.43011,-3.22581c0,-1.07527 0.21505,-1.93548 0.21505,-3.01075c0,-0.86021 0,-1.50538 0,-1.72043c0,-0.21505 -0.10612,-0.8341 -0.21505,-1.50537c-0.0689,-0.42455 -0.21505,-0.86022 -0.21505,-1.29032c0,-0.21505 -0.10672,-0.84038 -0.21505,-1.72043c-0.02628,-0.21344 0.06299,-0.27804 0.21505,-0.43011c0.15207,-0.15207 0.86022,0 1.50538,-0.21505c0.64516,-0.21505 1.29032,-0.21505 1.93548,-0.21505c0.64516,0 0.86022,0 1.07527,0c0.43011,0 0.86022,0 1.07527,0c0.43011,0 0.43011,0.21505 1.07527,0.64516c0.64516,0.43011 1.07527,0.86022 1.29032,1.50538c0.21505,0.64516 0.53711,1.27437 0.64516,2.36559c0.08476,0.85603 0,1.93548 0,2.58064c0,0.43011 0,0.64516 0,0.86022c0,0.43011 -0.34279,0.97054 -0.86022,1.29032c-0.57849,0.35753 -1.29032,0.43011 -1.93548,0.86022c-0.64516,0.43011 -0.94341,0.84249 -1.50538,1.07527c-0.39737,0.16459 -0.86021,0.43011 -1.50538,0.86022c-0.64516,0.43011 -1.03737,0.96478 -1.50538,1.07527c-0.2093,0.04941 -0.27804,0.06299 -0.43011,0.21505c-0.15207,0.15207 -0.36712,0.27804 -0.21505,0.43011c0.15207,0.15207 0.64516,0 1.50538,0c0.86021,0 1.93548,0 2.7957,0c1.07527,0 2.15054,0.21505 3.01075,0.21505c0.86021,0 1.10952,-0.08373 1.72043,0.21505c0.69654,0.34067 1.29032,0.86021 1.72043,1.72043c0.43011,0.86021 0.38491,1.52224 0.64516,2.15054c0.18402,0.44427 0.21505,1.07527 0.21505,1.50537c0,0.43011 -0.02492,1.06749 -0.21505,1.72043c-0.24791,0.85133 -0.43011,1.29032 -0.43011,1.50537c0,0.21505 -0.10199,0.24717 -0.21505,0.43011c-0.25281,0.40906 -0.64516,0.43011 -1.07527,0.43011c-0.43011,0 -0.82231,0.10457 -1.29032,0.21505c-0.2093,0.04941 -0.90933,0.24689 -1.50538,0c-0.28098,-0.11639 -0.43011,-0.21505 -0.64516,-0.21505c-0.43011,0 -0.77114,0.08908 -1.07527,-0.21505c-0.15207,-0.15207 -0.21783,-0.18061 -0.43011,-0.21505c-0.67128,-0.10893 -1.10801,-0.26551 -1.50538,-0.43011c-0.28098,-0.11639 -0.43011,-0.21505 -0.64516,-0.21505c-0.21505,0 -0.43011,0 -0.64516,0c-0.21505,0 -0.27804,0.06299 -0.43011,0.21505c-0.15207,0.15207 -0.64516,0 -1.07527,0l-0.21505,0l-0.21505,0" id="svg_1" stroke="#000" fill="none"/>
 </g>
</svg>