<svg width="25" height="50" xmlns="http://www.w3.org/2000/svg">
 <g id="Layer_1">
  <title>Layer 1</title>
  <path d="m17.73809,10.4762c-0.15873,0 -0.63801,-0.06256 -1.26984,0c-0.80543,0.07975 -1.57745,0.23782 -2.53968,0.31746c-0.94913,0.07855 -1.90476,0 -3.01587,0c-1.11111,0 -2.22222,0 -3.01587,0c-0.63492,0 -1.42857,0 -2.06349,0c-0.47619,0 -0.95238,0 -1.42857,0c-0.47619,0 -1.11111,0.15873 -1.42857,0.15873c-0.15873,0 -0.15873,0.15873 -0.15873,0.47619c0,0.31746 0,0.63492 0,0.95238c0,0.47619 0.08115,1.11587 0.15873,1.74603c0.07996,0.64956 0.15873,1.26984 0.15873,2.06349c0,0.95238 0.07996,2.06629 0.15873,3.1746c0.07957,1.11957 0.23789,2.21376 0.31746,3.33333c0.07877,1.10831 0.08018,2.22547 0.15873,3.1746c0.07964,0.96223 0.31454,1.85905 0.47619,2.69841c0.15008,0.77933 0.08018,1.74927 0.15873,2.69841c0.07964,0.96223 0.31746,2.06349 0.31746,3.1746c0,1.11111 0,2.06349 -0.15873,3.01587c-0.15873,0.95238 -0.55496,1.57266 -0.63492,2.22222c-0.07758,0.63016 -0.07833,1.25056 -0.15873,1.74603c-0.05085,0.31336 0,0.63492 0,0.95238c0,0.47619 0,0.79365 0,0.95238c0,0.15873 0,0.31746 0,0.63492c0,0.15873 -0.11224,0.36395 0,0.47619c0.11224,0.11224 0.31746,0 0.79365,0c1.11111,0 2.54085,0.06091 4.12698,0c2.06806,-0.07942 3.97117,-0.12934 5.71428,-0.31746c1.27233,-0.13731 2.06349,-0.15873 2.69841,-0.31746l0.63492,0l0.31746,0l0.15873,-0.15873" id="svg_1" stroke="#000" fill="none"/>
  <path d="m1.3889,27.46032c0.15873,0 0.62918,-0.01839 1.11111,-0.15873c0.62836,-0.18298 1.43182,-0.08018 2.38095,-0.15873c0.96223,-0.07964 1.89298,-0.23771 2.69841,-0.31746c0.63183,-0.06256 1.09183,-0.23706 1.5873,-0.31746c0.31336,-0.05085 0.61564,-0.07833 1.11111,-0.15873c0.31336,-0.05085 0.47619,0 0.63492,0c0.15873,0 0.31746,0 0.47619,0c0.15873,0 0.47619,-0.15873 0.79365,-0.15873c0.31746,0 0.79365,0 1.11111,0c0.31746,0 0.47619,0 0.63492,0c0.15873,0 0.47619,0 0.79365,0c0.15873,0 0.15873,-0.15873 0.31746,-0.15873c0.31746,0 0.47619,0 0.63492,0c0.15873,0 0.31746,0 0.47619,0c0.15873,0 0.31746,-0.15873 0.47619,-0.15873c0.15873,0 0.15873,-0.15873 0.31746,-0.15873l0.15873,0l0.15873,0l0.15873,-0.15873" id="svg_2" stroke="#000" fill="none"/>
 </g>
</svg>