<svg width="25" height="50" xmlns="http://www.w3.org/2000/svg">
 <g id="Layer_1">
  <title>Layer 1</title>
  <path d="m3.45541,11.94268c0,0.12739 0.40102,0.76184 0.50955,1.65605c0.15425,1.27091 0.58389,2.7935 0.76433,4.58599c0.21728,2.15844 0.34944,4.84408 0.63694,7.51592c0.34316,3.18915 0.76416,6.10462 0.89172,8.53503c0.10683,2.03542 0.12739,3.69427 0.12739,4.96815c0,1.1465 -0.06799,2.05052 -0.25478,2.80255c-0.0971,0.39096 -0.12739,0.63694 -0.12739,0.76433l0,0.25478" id="svg_1" stroke="#000" fill="none"/>
  <path d="m1.03503,28.75796c0.12739,0 1.0242,0.03958 2.16561,-0.12739c1.40925,-0.20615 2.92994,-0.38217 4.58599,-0.38217c1.65605,0 3.1852,0.00574 4.71338,-0.12739c1.40174,-0.12212 2.26205,-0.50789 3.05733,-0.63694c0.25149,-0.04081 0.50955,-0.12739 0.89172,-0.25478l0.25478,-0.12739l0.38217,-0.12739l0.25478,0" id="svg_2" stroke="#000" fill="none"/>
  <path d="m18.74204,10.79618c-0.12739,0.12739 -0.12739,0.25478 -0.12739,0.63694c0,0.63694 -0.13628,1.39984 -0.25478,2.16561c-0.13775,0.89018 -0.191,2.03345 -0.25478,3.3121c-0.0698,1.39953 -0.06363,2.67083 -0.12739,4.07643c-0.06927,1.52709 0,3.05733 0,4.4586c0,1.40127 -0.06189,2.53427 -0.25478,3.56688c-0.18858,1.00958 -0.19137,2.03997 -0.25478,3.18471c-0.06379,1.15179 -0.12739,2.1656 -0.12739,3.3121c0,1.1465 -0.014,2.29433 0.12739,3.69427c0.11592,1.14771 0.34504,2.29832 0.50955,3.3121c0.10405,0.64117 0.23966,1.2771 0.38217,1.91083c0.11523,0.51244 0.12739,0.89172 0.25478,1.1465l0,0.12739" id="svg_3" stroke="#000" fill="none"/>
 </g>
</svg>