<svg width="25" height="50" xmlns="http://www.w3.org/2000/svg">
 <g id="Layer_1">
  <title>Layer 1</title>
  <path d="m2.96154,11.51282c0,0.20513 0.11235,0.61306 0.20513,1.02564c0.11473,0.51023 0.20513,1.02564 0.30769,1.53846c0.10256,0.51282 0.15346,1.01618 0.20513,1.4359c0.05013,0.40718 0.05103,0.91547 0.10256,1.4359c0.06064,0.61239 0.05719,1.12946 0.10256,1.94872c0.05136,0.92734 0.0642,1.94951 0.10256,2.87179c0.05133,1.23397 0.15378,2.25257 0.20513,3.28205c0.04087,0.81949 0.0444,1.64309 0.10256,2.46154c0.05141,0.72341 0.06374,1.34979 0.20513,1.94872c0.05269,0.22321 0.15437,0.72005 0.20513,1.33333c0.05146,0.62175 0.15367,1.22441 0.20513,1.84615c0.05922,0.7155 0,1.23077 0,1.64103c0,0.30769 0,0.51282 0,0.82051c0,0.30769 0,0.51282 0,0.71795c0,0.20513 0,0.41026 0,0.61538c0,0.20513 0.11775,0.43368 0,0.71795c-0.05551,0.13401 -0.10256,0.30769 -0.10256,0.51282c0,0.10256 -0.07252,0.23517 0,0.30769c0.07252,0.07253 0.51282,0 1.23077,0c0.82051,0 1.84615,0 2.87179,0c0.92308,0 1.83643,-0.05013 2.76923,-0.20513c0.91619,-0.15224 1.74673,-0.18002 2.66667,-0.30769c0.61795,-0.08576 1.12184,-0.25624 1.74359,-0.30769c0.51107,-0.0423 0.92308,0 1.12821,0c0.10256,0 0.20513,-0.10257 0.41026,-0.10257c0.30769,0 0.61539,0 0.92308,0c0.30769,0 0.61538,0 0.82051,0l0.20513,0l0.20513,0" id="svg_1" stroke="#000" fill="none"/>
 </g>
</svg>