<svg width="25" height="50" xmlns="http://www.w3.org/2000/svg">
 <g id="Layer_1">
  <title>Layer 1</title>
  <path d="m20.32946,17.94574c0,-0.07752 -0.05684,-0.2506 -0.46512,-0.69767c-0.44356,-0.48572 -1.07292,-0.87875 -1.70543,-1.16279c-0.76164,-0.34203 -1.45504,-0.61357 -2.24806,-0.77519c-0.68783,-0.14019 -1.39245,-0.27127 -2.17054,-0.31008c-0.61938,-0.03089 -1.08716,-0.03819 -1.47287,0c-0.39335,0.03895 -0.72899,0.18694 -1.08527,0.46512c-0.34564,0.26987 -0.77519,0.62016 -1.16279,0.93023c-0.3876,0.31008 -1.04157,0.65424 -1.55039,1.08527c-0.50189,0.42517 -0.94139,0.92299 -1.24031,1.39535c-0.24171,0.38195 -0.36468,0.6988 -0.3876,0.93023c-0.03895,0.39335 -0.09718,0.86521 0.15504,1.24031c0.21627,0.32165 0.65841,0.75525 1.31783,1.16279c0.73725,0.45565 1.69718,0.7236 2.63566,1.00775c0.84593,0.25613 1.69239,0.57745 2.48062,0.85271c0.76407,0.26683 1.56151,0.50836 2.32558,0.77519c0.78823,0.27527 1.39535,0.46512 1.93798,0.62016c0.54264,0.15504 1.1083,0.42629 1.78295,0.85271c0.56369,0.35629 1.02482,0.60425 1.24031,0.85271c0.25395,0.29281 0.42079,0.73049 0.77519,1.16279c0.13901,0.16956 0.24374,0.30497 0.31008,0.46512c0.09381,0.22648 0.16649,0.53825 0.31008,0.93023c0.08432,0.23018 0.07752,0.3876 0.15504,0.62016c0.07752,0.23256 0.07752,0.46512 0.07752,0.77519c0,0.31008 -0.03292,0.70734 -0.15504,1.16279c-0.17153,0.63973 -0.32384,1.15616 -0.54263,1.62791c-0.2484,0.53557 -0.703,0.99986 -1.39535,1.47287c-0.78131,0.53379 -1.38847,1.02192 -2.0155,1.31783c-0.69045,0.32584 -1.54133,0.58991 -2.63566,0.7752c-1.23242,0.20867 -2.79335,0.47833 -4.34108,0.3876c-1.32465,-0.07765 -2.41438,-0.4357 -3.25581,-0.7752c-0.70802,-0.28566 -1.08527,-0.46511 -1.24031,-0.62015c-0.07752,-0.07752 -0.27281,-0.19831 -0.46512,-0.46512c-0.20271,-0.28124 -0.24935,-0.78585 -0.3876,-1.39535c-0.16268,-0.71719 -0.44546,-1.17529 -0.69767,-1.55039c-0.21627,-0.32165 -0.42978,-0.68736 -0.54264,-1.24031c-0.12498,-0.61236 -0.19367,-1.08046 -0.23256,-1.55039c-0.01918,-0.23177 0.15259,-0.46925 0.54264,-0.69768c0.53931,-0.31583 1.18093,-0.58085 1.55039,-0.77519c0.24736,-0.13012 0.31008,-0.23256 0.31008,-0.31008l0.15504,-0.15504l0.23256,-0.23256" id="svg_1" stroke="#000" fill="none"/>
 </g>
</svg>