<svg width="25" height="50" xmlns="http://www.w3.org/2000/svg">
 <g id="Layer_1">
  <title>Layer 1</title>
  <path d="m4.48678,12.81447c-0.06623,0.06623 -0.09922,0.26079 -0.13245,0.66225c-0.0437,0.52799 0,1.19205 0,1.8543c0,0.59602 -0.00548,1.19152 -0.06623,1.8543c-0.07279,0.79413 -0.0993,1.58692 -0.13245,2.25165c-0.03629,0.72757 -0.09664,1.73173 0.06623,2.84767c0.16703,1.14445 0.41147,2.26536 0.66225,3.11258c0.22001,0.74327 0.55254,1.47986 1.3245,2.31787c0.76409,0.82947 1.46011,1.11741 1.98675,1.0596c0.60692,-0.06662 1.6197,-0.3297 2.71523,-0.86092c1.09391,-0.53044 2.20644,-1.09999 2.98012,-1.92052c0.68149,-0.72275 1.16461,-1.63739 1.52317,-2.45033c0.37225,-0.84396 0.51237,-1.67273 0.72848,-2.51655c0.19231,-0.75091 0.53727,-1.55293 0.86092,-2.1192c0.28269,-0.4946 0.64527,-1.00523 0.92715,-1.39072c0.2503,-0.3423 0.51087,-0.61004 0.66225,-0.7947c0.05938,-0.07243 -0.01167,-0.29892 0.13245,-0.2649c0.06445,0.01521 0.01305,0.19932 0,0.33113c-0.03327,0.33604 -0.18788,0.66371 -0.2649,1.19205c-0.11621,0.79724 -0.23177,1.65397 -0.2649,2.649c-0.03306,0.99283 -0.06623,2.05297 -0.06623,3.37748c0,1.25827 -0.03349,2.45305 -0.13245,3.4437c-0.09961,0.9972 -0.23177,2.0512 -0.2649,2.98012c-0.03069,0.86038 -0.06369,1.78826 -0.13245,2.71522c-0.06387,0.86111 -0.13245,1.5894 -0.13245,2.18542c0,0.66225 0,1.25828 0,1.72185c0,0.46357 0,0.92715 0,1.3245c0,0.39735 0.02851,0.67106 -0.06623,0.92715c-0.10275,0.27777 -0.2649,0.59603 -0.39735,0.7947c-0.13245,0.19868 -0.38747,0.47749 -0.66225,0.66225c-0.32045,0.21547 -0.58721,0.36716 -1.0596,0.46357c-0.52314,0.10677 -1.12376,0.16553 -1.92052,0.19868c-0.99252,0.04128 -1.8543,0 -2.51655,0c-0.59603,0 -1.14029,0.07342 -1.65563,-0.06623c-0.4868,-0.13191 -1.15245,-0.39414 -1.92052,-0.72847c-0.76084,-0.33118 -1.36531,-0.83416 -1.78807,-1.52317c-0.58878,-0.95959 -1.13418,-2.04988 -1.52317,-3.11258c-0.33841,-0.92451 -0.46357,-1.5894 -0.46357,-1.98675c0,-0.2649 0.08523,-0.57293 0.33113,-0.7947c0.28676,-0.25862 0.66225,-0.33112 0.99337,-0.39735l0.2649,-0.06622l0.19867,0l0.06623,0" id="svg_1" stroke="#000" fill="none"/>
 </g>
</svg>