<svg width="25.000000000000004" height="50.00000000000001" xmlns="http://www.w3.org/2000/svg">
 <g id="Layer_1">
  <title>Layer 1</title>
  <path d="m3.95647,11.56891c0.06472,0 0.32549,0.05436 0.71196,0.12945c0.58577,0.11381 1.29404,0.26384 2.00644,0.32362c0.84094,0.07056 1.61809,0.06472 2.39478,0.06472c0.84141,0 1.74754,0 2.52423,0c0.58251,0 0.972,0.03212 1.42392,0c0.45651,-0.03244 0.97186,-0.09727 1.48865,-0.12945c0.52081,-0.03242 0.96684,-0.09698 1.3592,-0.12945c0.38702,-0.03203 0.77669,0 1.1003,0c0.38834,0 0.78294,0.03018 1.16503,-0.06472c0.19864,-0.04934 0.38048,-0.09666 0.58251,-0.12945c0.06389,-0.01037 0.16736,-0.15626 0.25889,-0.06472c0.04577,0.04577 0.05885,0.27129 -0.06472,0.71196c-0.13309,0.47461 -0.40038,1.0297 -0.71196,1.68282c-0.33674,0.70585 -0.67111,1.34397 -1.03558,1.94171c-0.34691,0.56895 -0.73802,1.07861 -1.16503,1.61809c-0.34555,0.43657 -0.71196,0.97086 -1.03558,1.48865c-0.32362,0.51779 -0.72711,0.95798 -1.16503,1.48865c-0.46971,0.56918 -0.8141,1.21452 -1.03558,1.81227c-0.23478,0.63364 -0.39388,1.16269 -0.58251,1.61809c-0.26677,0.64403 -0.5247,1.22566 -0.90613,1.87699c-0.2637,0.45029 -0.57799,0.90956 -0.97086,1.42392c-0.44794,0.58647 -0.99067,1.27778 -1.42392,1.81227c-0.40757,0.5028 -0.73659,0.82607 -0.97086,1.22975c-0.21793,0.37553 -0.45307,0.77668 -0.77668,1.22975c-0.32362,0.45307 -0.60898,0.76221 -0.77668,1.1003c-0.15488,0.31225 -0.30864,0.68691 -0.45307,1.03558c-0.10212,0.24655 -0.17049,0.60429 -0.32362,1.03558c-0.12627,0.35565 -0.24556,0.71762 -0.38834,1.03558c-0.11858,0.26405 -0.24039,0.40204 -0.38834,0.58252c-0.17409,0.21236 -0.2842,0.37342 -0.51779,0.51779c-0.17411,0.1076 -0.27093,0.17427 -0.38834,0.2589c-0.07426,0.05352 -0.15914,0.17433 -0.19417,0.2589c-0.04954,0.11959 -0.06472,0.2589 -0.12945,0.38834c-0.06472,0.12945 -0.0962,0.24749 -0.12945,0.38834c-0.01487,0.06299 0.06472,0.06472 0.12945,0.06472c0.58251,0 1.61809,0 2.91257,0c1.81226,0 3.62596,0.01423 5.63096,-0.19417c1.74887,-0.18177 3.04202,-0.32362 4.33649,-0.32362c1.03558,0 1.87799,0.03217 2.39478,0c0.52081,-0.03242 0.77668,-0.06472 0.90613,-0.06472c0.06472,0 0.12945,0 0.25889,0c0.19417,0 0.32613,0.03111 0.51779,0c0.20203,-0.03278 0.3982,-0.01519 0.51779,-0.06472c0.08456,-0.03503 0.19417,-0.06472 0.25889,-0.06472l0.06472,-0.06472l0.12945,0l0.06472,0" id="svg_1" stroke="#000" fill="none"/>
 </g>
</svg>